# xmcd
#
# Track frame offsets:
#	150
#	10996
#	24528
#	41123
#	49633
#	64978
#	77844
#	91645
#	100988
#	114052
#	125004
#	143230
#	154144
#	164515
#	173660
#	188451
#	202594
#	211109
#
# Disc length: 2953 seconds
#
# Revision: 1
# Processed by: cddbd v1.5.2PL0 Copyright (c) Steve Scherf et al.
# Submitted via: audiograbber 1.83.01
#
DISCID=e10b8712
DTITLE=Christmas With The Stars - Silent Night
DYEAR=2009
DGENRE=Blues
TTITLE0=Elvis Presley - Silent Night
TTITLE1=Bing Crosby  -  White Christmas
TTITLE2=James Brown - Christmas Is For Everyone
TTITLE3=The Platters - Blue Christmas
TTITLE4=Frank Sinatra - It Came Upon A Midnight Clear
TTITLE5=Perry Como -  C-R-I-S-T-M-AS
TTITLE6=Harry Belafonte - I Heard The Bells On Christmas Day
TTITLE7=Harold Melvin and The Bluenotes - Jingle Bell Rock
TTITLE8=Louis Armstrong - Christmas In The New Orleans
TTITLE9=B.J. Thomas - On This Christmas Night
TTITLE10=Johnny Mathis - I'll Be Home For Christmas
TTITLE11=Skeeter Davis - Rudolph The Rednose Reindeer
TTITLE12=The Drifters - Little Saint Nick
TTITLE13=Pat Boone - Jingle Bells
TTITLE14=Rosemary Clooney - Winter Worderland
TTITLE15=The Trammps - The Little Boy That Santa Forgot
TTITLE16=Gene Autry - Frosty The Snowman
TTITLE17=Kitty Wells - Away In A Manager
EXTD=
EXTT0=
EXTT1=
EXTT2=
EXTT3=
EXTT4=
EXTT5=
EXTT6=
EXTT7=
EXTT8=
EXTT9=
EXTT10=
EXTT11=
EXTT12=
EXTT13=
EXTT14=
EXTT15=
EXTT16=
EXTT17=
PLAYORDER=
